<?xml version="1.0" standalone="no"?>
<!DOCTYPE svg PUBLIC "-//W3C//DTD SVG 20010904//EN"
 "http://www.w3.org/TR/2001/REC-SVG-20010904/DTD/svg10.dtd">
<svg version="1.0" xmlns="http://www.w3.org/2000/svg"
 width="512.000000pt" height="512.000000pt" viewBox="0 0 512.000000 512.000000"
 preserveAspectRatio="xMidYMid meet">

<g transform="translate(0.000000,512.000000) scale(0.100000,-0.100000)"
fill="#000000" stroke="none">
<path d="M0 2560 l0 -2560 2560 0 2560 0 0 2560 0 2560 -2560 0 -2560 0 0
-2560z m2640 1871 c14 -7 53 -51 85 -98 73 -105 171 -202 203 -203 13 0 58 16
100 36 140 66 194 84 248 84 29 0 59 -3 68 -6 24 -9 36 -60 50 -218 l13 -147
44 -46 c24 -24 54 -49 66 -54 13 -4 80 -13 149 -19 165 -13 200 -24 213 -64
19 -57 4 -115 -73 -281 -28 -60 -51 -117 -51 -125 1 -22 139 -149 222 -205 79
-52 103 -88 103 -154 0 -72 -20 -103 -111 -167 -121 -84 -209 -170 -209 -204
0 -15 23 -74 50 -130 60 -122 83 -200 74 -253 -9 -54 -44 -67 -228 -83 l-149
-13 -48 -47 c-55 -54 -55 -55 -68 -230 -6 -67 -16 -138 -25 -157 -12 -31 -20
-36 -58 -42 -58 -9 -106 5 -248 71 -64 30 -126 54 -136 54 -29 0 -116 -89
-190 -197 -36 -51 -79 -100 -94 -108 -37 -19 -123 -19 -160 0 -15 8 -58 57
-94 108 -74 108 -161 197 -190 197 -10 0 -72 -24 -136 -54 -140 -65 -190 -80
-245 -72 -57 9 -73 45 -85 190 -16 189 -15 187 -69 240 l-48 47 -156 14 c-96
8 -167 19 -185 29 -62 32 -50 129 38 306 27 56 50 114 50 128 0 17 -20 46 -62
91 -35 36 -66 66 -70 66 -19 0 -160 110 -173 135 -19 38 -19 113 1 155 10 21
41 50 87 80 83 56 221 183 222 205 0 8 -23 65 -51 125 -77 167 -92 223 -73
282 8 26 18 35 48 43 32 8 237 29 294 30 10 0 43 23 72 51 61 58 61 56 75 234
13 177 25 198 104 196 62 -1 96 -11 228 -72 59 -27 117 -49 130 -49 32 1 130
98 202 203 36 51 72 91 90 100 36 17 119 16 156 -2z m-1141 -2691 c1 -44 23
-125 44 -165 23 -44 141 -160 185 -181 88 -42 217 -24 356 52 42 22 71 32 80
27 8 -4 32 -31 55 -59 l40 -51 -67 -114 c-37 -63 -94 -159 -127 -214 -33 -55
-67 -114 -77 -131 -61 -114 -136 -229 -148 -231 -10 -2 -42 57 -103 191 -72
157 -97 202 -133 237 l-44 43 -162 -12 c-90 -7 -196 -15 -235 -19 -87 -7 -89
-2 -40 73 19 28 36 57 39 65 3 8 59 104 123 214 65 110 136 232 159 272 43 75
54 76 55 3z m2237 -107 c46 -78 88 -150 92 -160 4 -10 23 -43 43 -73 20 -30
50 -80 66 -110 16 -30 44 -77 61 -105 47 -75 45 -79 -40 -72 -40 3 -146 11
-236 18 l-162 13 -41 -39 c-40 -38 -108 -167 -195 -367 -19 -44 -34 -67 -44
-65 -12 2 -105 146 -155 242 -9 17 -24 44 -34 60 -10 17 -66 111 -124 209
l-106 180 40 50 c23 28 47 55 55 59 8 5 43 -7 91 -32 104 -53 182 -74 252 -69
78 6 120 29 201 112 74 74 104 132 115 219 15 110 16 113 27 92 6 -11 48 -84
94 -162z"/>
<path d="M2363 4055 c-82 -15 -227 -61 -246 -78 -6 -7 -20 -13 -30 -13 -38 -3
-195 -114 -293 -208 -182 -172 -286 -338 -338 -538 -31 -119 -38 -168 -38
-298 0 -173 38 -333 118 -492 19 -38 39 -68 46 -68 6 0 8 -3 5 -6 -9 -10 63
-108 135 -186 74 -78 188 -178 204 -178 7 0 14 -6 17 -14 9 -22 225 -124 319
-151 315 -88 652 -31 926 157 127 88 369 348 345 372 -3 3 -1 6 5 6 29 0 121
227 147 362 16 86 21 265 10 353 -16 123 -95 356 -131 386 -8 6 -14 17 -14 24
0 27 -121 174 -222 270 -100 95 -257 205 -295 209 -10 0 -24 6 -30 13 -19 17
-164 63 -251 78 -96 18 -293 17 -389 0z m423 -263 c44 -12 97 -28 117 -37 20
-8 37 -12 37 -8 0 5 4 3 8 -3 4 -5 34 -25 67 -43 67 -37 161 -105 188 -136
101 -115 181 -262 219 -404 19 -73 40 -341 27 -341 -3 0 -9 -22 -12 -49 -11
-89 -67 -239 -126 -332 -47 -74 -169 -218 -186 -219 -3 0 -30 -17 -62 -36
-100 -65 -206 -105 -364 -140 -85 -18 -329 4 -439 41 -25 8 -49 15 -54 14 -5
0 -12 3 -15 8 -3 4 -23 16 -44 26 -22 10 -63 33 -93 52 -30 19 -56 35 -59 35
-12 1 -130 131 -163 180 -20 30 -40 57 -43 60 -24 21 -109 279 -109 332 0 16
-3 28 -7 28 -15 0 5 264 25 341 38 142 120 294 219 404 28 31 122 99 188 136
33 18 63 38 67 43 4 6 8 8 8 4 0 -4 23 1 50 12 28 11 92 29 143 40 119 26 294
22 413 -8z"/>
<path d="M3110 3390 c0 -5 -7 -7 -15 -3 -11 4 -119 -97 -355 -333 -187 -187
-346 -339 -355 -339 -8 0 -91 75 -184 168 -136 134 -175 167 -197 167 -20 0
-43 -16 -90 -64 -101 -101 -109 -84 178 -372 133 -134 245 -241 250 -238 4 3
8 0 8 -6 0 -7 7 -10 15 -6 8 3 15 2 15 -3 0 -37 90 44 469 423 482 483 457
445 371 539 -46 50 -110 89 -110 67z"/>
</g>
</svg>
